# xmcd
#
# Track frame offsets: 
#        182
#        33352
#        55012
#        79357
#        110665
#        153545
#        191182
#
# Disc length: 2846 seconds
#
# Revision: 9
# Processed by: cddbd v1.5.2PL0 Copyright (c) Steve Scherf et al.
# Submitted via: ExactAudioCopy v0.99pb4
#
DISCID=5b0b1c07
DTITLE=John Mayall - The Turning Point
DYEAR=1969
DGENRE=Blues
TTITLE0=The Laws Must Change
TTITLE1=Saw Mill Gulch Road
TTITLE2=I'm Gonna Fight For You J.B.
TTITLE3=So Hard To Share
TTITLE4=California
TTITLE5=Thoughts About Roxanne
TTITLE6=Room To Move
EXTD=
EXTT0=
EXTT1=
EXTT2=
EXTT3=
EXTT4=
EXTT5=
EXTT6=
PLAYORDER=
